<svg version="1.1" id="Capa_1" xmlns="http://www.w3.org/2000/svg" xmlns:xlink="http://www.w3.org/1999/xlink" x="0px" y="0px" width="600px" height="200px" viewBox="130 450 900 300" enable-background="new 0 0 1200 400" xml:space="preserve">
<g>
	<path fill="#254475" d="M145.576,556.244c0,0,23.913-3.791,52.377,5.891c28.466,9.677,72.301,30.74,101.331,23.341
		c29.032-7.401,145.171-34.731,195.274-47.254c50.096-12.524,158.835-27.328,236.262-26.758
		c77.427,0.568,158.269,18.788,204.954,34.158c46.684,15.371,63.193,23.912,70.311,26.475c7.116,2.562,7.116,11.101,7.116,11.101
		s14.516,3.987,7.969,13.378c-6.546,9.395-41.275,41.846-120.408,60.634c-79.135,18.786-226.873,33.588-335.611,24.479
		c-108.737-9.108-171.931-23.911-198.122-30.173c-26.188-6.263-53.514-11.956-70.023-10.818
		c-16.505,1.14-51.231,13.096-83.679,25.051c-32.452,11.955-64.902,29.606-82.552,24.48c30.173-27.896,71.733-59.778,99.629-70.023
		C177.458,596.86,144.438,565.726,145.576,556.244z"></path>
	<path fill="#406CAB" d="M1021.169,596.575c6.547-9.391-7.969-13.378-7.969-13.378s0-8.539-7.116-11.101
		c-6.245-2.249-19.716-9.094-54.44-21.117c-74.454-15.339-174.05-27.681-261.246-20.7c-134.104,10.733-321.849,54.655-352.214,65.06
		c-30.361,10.412-48.578,21.476-15.616,35.139c18.34,7.604,130.09,30.704,225.657,49.708c5.526,0.515,11.148,1.019,16.925,1.501
		c108.738,9.109,256.476-5.693,335.611-24.479C979.894,638.421,1014.624,605.97,1021.169,596.575z"></path>
	<path fill="#254475" d="M653.203,517.916c0,0-30.743-9.11-59.586-20.495c-28.846-11.388-43.269-14.803-49.723-11.004
		c-6.451,3.793-4.556,17.046-2.275,25.033c2.275,7.984,2.176,21.65-2.136,27.719C535.166,545.243,653.203,517.916,653.203,517.916z"></path>
	<path fill="#254475" d="M878.651,637.471c2.4,0.1-3.037,12.905-21.252,20.496c-18.22,7.588-30.363,11.385-45.167,8.35
		c-14.801-3.038-37.571,1.049-37.571,1.049s17.456-15.092,36.812-20.787C830.829,640.886,869.542,637.09,878.651,637.471z"></path>
	<ellipse fill="#98CAFF" cx="961.582" cy="576.744" rx="18.029" ry="18.595"></ellipse>
	<path fill="#254475" d="M961.581,566.117c-0.21,0-0.406,0.053-0.614,0.072c0.381,0.859,0.614,1.816,0.614,2.842
		c0,3.502-2.482,6.344-5.542,6.344c-1.028,0-1.975-0.343-2.799-0.897c-0.053,0.436-0.114,0.863-0.114,1.314
		c0,5.343,3.784,9.675,8.455,9.675c4.673,0,8.458-4.332,8.458-9.675C970.039,570.45,966.253,566.117,961.581,566.117z"></path>
</g>
</svg>